<?xml version="1.0" encoding="UTF-8" standalone="no"?>
<svg
   xmlns:dc="http://purl.org/dc/elements/1.1/"
   xmlns:cc="http://creativecommons.org/ns#"
   xmlns:rdf="http://www.w3.org/1999/02/22-rdf-syntax-ns#"
   xmlns:svg="http://www.w3.org/2000/svg"
   xmlns="http://www.w3.org/2000/svg"
   xmlns:sodipodi="http://sodipodi.sourceforge.net/DTD/sodipodi-0.dtd"
   xmlns:inkscape="http://www.inkscape.org/namespaces/inkscape"
   sodipodi:docname="drawing.svg"
   inkscape:version="1.0 (4035a4fb49, 2020-05-01)"
   id="svg8"
   version="1.1"
   viewBox="0 0 82.020831 13.229167"
   height="50"
   width="310">
  <defs
     id="defs2">
    <inkscape:perspective
       id="perspective640"
       inkscape:persp3d-origin="41.010416 : 5.4680557 : 1"
       inkscape:vp_z="82.020831 : 7.4083335 : 1"
       inkscape:vp_y="0 : 1000 : 0"
       inkscape:vp_x="0 : 7.4083335 : 1"
       sodipodi:type="inkscape:persp3d" />
  </defs>
  <sodipodi:namedview
     inkscape:window-maximized="1"
     inkscape:window-y="-9"
     inkscape:window-x="-9"
     inkscape:window-height="971"
     inkscape:window-width="1680"
     units="px"
     showgrid="false"
     inkscape:document-rotation="0"
     inkscape:current-layer="layer1"
     inkscape:document-units="mm"
     inkscape:cy="45.123402"
     inkscape:cx="176.25148"
     inkscape:zoom="3.959798"
     inkscape:pageshadow="2"
     inkscape:pageopacity="0.0"
     borderopacity="1.0"
     bordercolor="#666666"
     pagecolor="#ffffff"
     id="base" />
  <metadata
     id="metadata5">
    <rdf:RDF>
      <cc:Work
         rdf:about="">
        <dc:format>image/svg+xml</dc:format>
        <dc:type
           rdf:resource="http://purl.org/dc/dcmitype/StillImage" />
        <dc:title></dc:title>
      </cc:Work>
    </rdf:RDF>
  </metadata>
  <g
     id="layer1"
     inkscape:groupmode="layer"
     inkscape:label="Layer 1">
    <text
       transform="scale(1.2559349,0.79621963)"
       id="text20"
       y="15.27426"
       x="-1.1300924"
       style="font-style:normal;font-weight:normal;font-size:18.4638px;line-height:1.25;font-family:sans-serif;fill:#ffffff;fill-opacity:1;stroke:none;stroke-width:0.461598;"
       xml:space="preserve"><tspan
         style="font-style:normal;font-variant:normal;font-weight:normal;font-stretch:normal;font-family:'Lucida Handwriting';-inkscape-font-specification:'Lucida Handwriting';fill:#ffffff;stroke-width:0.461598;"
         y="15.27426"
         x="-1.1300924"
         id="tspan18"
         sodipodi:role="line">MNR</tspan></text>
    <path
       d="M 261.78125,9.5546875 259.1875,10.875 c 0.0219,0.331086 -0.0282,0.712109 -0.19922,1.144531 -0.26517,0.670511 -0.54449,1.334977 -0.82617,1.998047 -0.0723,0.378291 -0.15576,0.75394 -0.26563,1.126953 -0.37896,1.180482 -0.71829,2.374272 -1.06445,3.564453 -0.2502,0.629927 -0.36474,1.302416 -0.56445,1.947266 -0.11845,0.382552 -0.26966,0.753 -0.40235,1.130859 -0.41288,1.110126 -0.89752,2.199131 -1.39062,3.277344 -0.0635,0.154479 -0.12508,0.309852 -0.1875,0.464844 -0.0634,0.490376 -0.098,0.746407 -0.24609,1.851562 -0.22804,1.469836 -0.31109,2.948628 -0.36133,4.429688 0.40393,-0.722154 0.81291,-1.441295 1.25,-2.144531 0.59767,-0.985171 1.15369,-1.992864 1.63086,-3.042969 0.437,-1.030622 0.84661,-2.073402 1.28515,-3.103516 0.4687,-1.091296 0.96224,-2.173336 1.35938,-3.292969 0.36404,-1.023605 0.65901,-2.065599 0.97265,-3.105468 0.34447,-1.183326 0.66385,-2.373581 1.0293,-3.550782 0.34674,-1.313963 0.48397,-2.661244 0.57422,-4.0156245 z M 251.15234,31.824219 c -0.41396,0.704829 -0.81375,1.418 -1.20507,2.136719 -0.21408,0.465555 -0.46197,0.91087 -0.72852,1.347656 l 1.85937,-0.826172 c 0.0249,-0.886161 0.0452,-1.772301 0.0742,-2.658203 z"
       transform="scale(0.26458333)"
       style="fill:#000000;fill-opacity:0;stroke-width:0.999999"
       id="path26" />
    <path
       d="m 70.966745,3.6366018 c -0.147826,0.5742694 -0.410626,1.1142165 -0.652021,1.654084 -0.199229,0.4308372 -0.367004,0.8771977 -0.584396,1.2994888 -0.07588,0.139219 -0.176414,0.2644778 -0.255916,0.4011893 -0.09695,0.1667137 -0.173241,0.3496281 -0.257225,0.5230249 -0.118589,0.2586487 -0.05987,0.1300348 -0.176157,0.3858342 0,0 0.881245,-0.4026387 0.881245,-0.4026387 v 0 c 0.115687,-0.2545103 0.05666,-0.1267491 0.177139,-0.3832539 0.15776,-0.3191307 0.332571,-0.6256065 0.520872,-0.92748 0.199091,-0.423677 0.362606,-0.8635764 0.555172,-1.2902422 0.246095,-0.5551643 0.50989,-1.1078786 0.681387,-1.6916217 0,0 -0.8901,0.4316153 -0.8901,0.4316153 z"
       id="path28"
       style="fill:#000000;fill-opacity:0;stroke-width:0.264583" />
    <path
       d="m 70.774649,4.0253703 c -0.06512,0.5335854 -0.113575,1.0695172 -0.192765,1.6011879 -0.01579,0.092671 -0.03161,0.1853419 -0.04742,0.278013 0,0 0.859779,-0.4210595 0.859779,-0.4210595 v 0 c 0.01373,-0.092253 0.02747,-0.1845064 0.04121,-0.2767597 0.07353,-0.5406146 0.126015,-1.0842484 0.228573,-1.6206954 0,0 -0.889373,0.4393137 -0.889373,0.4393137 z"
       id="path30"
       style="fill:#000000;fill-opacity:0;stroke-width:0.264583" />
    <path
       d="m 252.94336,10.533203 -3.33594,1.701172 c 0.008,0.201475 0.0265,0.401894 0.0234,0.603516 -0.009,0.608422 -0.0897,1.381107 -0.14648,1.972656 -0.11679,1.216244 -0.23563,2.433709 -0.36719,3.648437 -0.2888,1.714327 -0.5395,3.441453 -1.11914,5.085938 -0.44016,1.303653 -1.04373,2.541367 -1.52149,3.830078 -0.0833,0.242952 -0.15722,0.490217 -0.24804,0.730469 -0.23607,0.624621 -0.52255,1.227788 -0.74219,1.859375 -0.61956,1.781547 0.20264,-0.436807 -0.47656,1.365234 -0.28487,0.693082 -0.4561,1.425152 -0.70899,2.128906 -0.22953,0.638775 -0.50712,1.264486 -0.74609,1.900391 -0.32875,0.777479 -0.53147,1.594231 -0.8086,2.388672 l 1.98438,-0.931641 c 0.46814,-1.076498 0.94954,-2.149713 1.38476,-3.238281 0.69912,-1.74825 -0.0146,-0.174304 0.67774,-2.019531 0.11128,-0.296612 0.25656,-0.57944 0.38476,-0.869141 0.15175,-0.279811 0.21261,-0.559673 0.33008,-0.859375 0.10976,-0.280044 0.22301,-0.559075 0.35352,-0.830078 0.84461,-1.754135 1.33737,-2.565464 2.34375,-4.376953 0.12876,-0.230484 0.25615,-0.46182 0.38672,-0.691406 0.26872,-0.644367 0.5262,-1.293441 0.74609,-1.957032 0.51471,-1.663751 0.72949,-3.397066 0.99805,-5.113281 0.22152,-2.106737 0.48542,-4.213586 0.60742,-6.328125 z"
       transform="scale(0.26458333)"
       style="fill:#000000;fill-opacity:0;stroke-width:0.999999"
       id="path610" />
    <path
       d="m 254.55469,11.59375 -2.41602,1.232422 c 0.0333,2.198469 -0.17455,4.396538 -0.31836,6.589844 -0.0575,0.837968 -0.10424,1.676656 -0.14062,2.515625 0.26958,-0.535101 0.53088,-1.074144 0.79297,-1.613282 0.24739,-0.508913 0.48816,-1.020978 0.73242,-1.53125 0.0883,-0.333712 0.1713,-0.668836 0.26172,-1.001953 0.27168,-1.000962 0.65163,-1.974914 0.84375,-2.99414 0.19632,-1.041514 0.23579,-2.119601 0.24414,-3.197266 z m 0.40039,10.53125 c -0.45187,1.815952 -0.56271,2.539938 -0.73828,3.935547 l 0.74023,-0.376953 c -0.005,-0.671002 -0.007,-1.340701 -0.008,-2.011719 6.7e-4,-0.515371 0.004,-1.031166 0.006,-1.546875 z"
       transform="scale(0.26458333)"
       style="fill:#000000;fill-opacity:0;stroke-width:0.999999"
       id="path612" />
    <path
       d="m 258.45312,7.0625 -1.93945,0.9394531 c 0.33061,0.2961056 0.57031,0.825596 0.57031,1.59375 0,0.2287862 -0.003,0.4613799 -0.002,0.6914059 0.26606,-0.3426688 0.56964,-0.5418346 0.86719,-0.5957028 0.15865,-0.8778786 0.32325,-1.7551506 0.5039,-2.6289062 z m -3.89843,4.865234 c -0.0955,0.561312 -0.17682,1.124913 -0.27735,1.685547 -0.19505,1.055238 -0.34172,2.117561 -0.50976,3.175781 0.20707,-0.659861 0.41504,-1.319378 0.54297,-1.998046 0.17592,-0.933247 0.22813,-1.89711 0.24414,-2.863282 z m 2.11133,5.447266 c -0.35,0.756686 -0.71405,1.50692 -1.07227,2.259766 -0.15032,0.568543 -0.30345,1.136371 -0.44531,1.707031 -0.64308,2.586846 -0.72356,3.096235 -0.89063,4.412109 0.11762,-0.356851 0.22743,-0.716297 0.34766,-1.072265 0.48809,-1.443594 0.98087,-2.888802 1.33398,-4.373047 0.23296,-0.98059 0.50174,-1.951338 0.72657,-2.933594 z m -5.18946,10.152344 c -0.4438,0.796976 -0.85269,1.551721 -1.36328,2.613281 -0.10118,0.21036 -0.17901,0.427861 -0.25976,0.644531 -0.38253,1.43875 -0.82177,2.861612 -1.16602,4.310547 -0.24911,1.111416 -0.57506,2.202859 -0.89062,3.296875 -0.20761,0.717079 -0.35453,1.450569 -0.85157,2.027344 l 3.42774,-1.488281 c 0.22062,-0.376792 0.36604,-0.781557 0.49414,-1.19336 0.0458,-0.277738 0.0916,-0.5553 0.10937,-0.839843 0.19517,-3.12199 0.0785,-6.263024 0.5,-9.371094 z"
       transform="scale(0.26458333)"
       style="fill:#000000;fill-opacity:0;stroke-width:0.999999"
       id="path632" />
    <path
       d="m 254.20508,11.070312 -3.33399,1.697266 c 0.0189,2.322253 -0.35334,4.642303 -0.72461,6.929688 -0.39588,2.250983 -0.68388,4.517275 -0.97656,6.783203 0.30562,-0.551958 0.61245,-1.096537 1.03516,-1.857422 0.42138,-0.75426 0.86074,-1.499398 1.26367,-2.263672 0.35374,-0.670969 0.67229,-1.358843 1.00391,-2.041016 0.25245,-0.51932 0.49304,-1.0437 0.74218,-1.564453 0.0119,-0.04488 0.0232,-0.0899 0.0352,-0.134765 0.0232,-0.15815 0.0415,-0.316931 0.0684,-0.47461 0.37689,-2.344605 0.78577,-4.698167 0.88672,-7.074219 z m -2.73047,16.458985 c -0.44537,0.801533 -0.85814,1.565155 -1.36133,2.611328 -0.26076,0.542152 -0.41232,1.117897 -0.66797,1.662109 -0.11384,0.258781 -0.24372,0.510246 -0.34179,0.775391 -0.90693,2.452061 0.62623,-1.26494 -0.60743,1.841797 -0.53464,1.346423 -1.13402,2.670275 -1.70507,4.001953 -0.007,0.03655 -0.0149,0.0728 -0.0215,0.109375 -0.0451,0.507742 -0.18803,0.990801 -0.34375,1.472656 l 3.34961,-1.585937 c 0.1375,-0.495428 0.26938,-0.993014 0.3125,-1.507813 0.27364,-1.678218 0.65624,-3.334565 1.00586,-4.998047 0.0236,-0.109363 0.0466,-0.218765 0.0703,-0.328125 0.048,-1.354871 0.12803,-2.708067 0.31055,-4.054687 z"
       transform="scale(0.26458333)"
       style="fill:#000000;fill-opacity:0;stroke-width:0.999999"
       id="path634" />
    <path
       d="m 260.62891,3.2285156 -3.35157,1.5820313 c -0.13156,0.40202 -0.25163,0.8069396 -0.39453,1.2050781 -0.41966,1.1692684 -0.58873,1.6194148 -0.66211,1.796875 0.47271,0.2111854 0.86328,0.8023335 0.86328,1.7832031 0,0.2274936 -0.003,0.4587789 -0.002,0.6874999 0.30086,-0.3927217 0.65021,-0.5988112 0.98242,-0.6210936 0.0519,-0.1420753 0.0997,-0.2858933 0.15235,-0.4277344 0.95261,-2.5686516 0.98834,-2.4928202 1.90625,-4.7304688 0.17367,-0.4233292 0.33735,-0.8499935 0.50586,-1.2753906 z M 256.2168,7.734375 c 0.002,-0.00609 -0.0251,0.074195 -0.0234,0.068359 10e-4,5.602e-4 0.003,0.00139 0.004,0.00195 0.007,-0.025676 0.0123,-0.045533 0.0195,-0.070312 z m 5.50586,4.765625 -3.35547,1.509766 c -0.30417,0.583225 -0.62701,1.1564 -0.95508,1.726562 -0.58973,1.322122 -1.20427,2.632795 -1.82813,3.939453 -0.14663,0.554983 -0.29707,1.108991 -0.43554,1.666016 -0.59126,2.378412 -0.70409,3.000696 -0.8418,4.046875 0.14472,-0.272016 0.28705,-0.545222 0.42969,-0.81836 1.17554,-2.138366 2.45946,-4.214596 3.64062,-6.349609 C 259.42744,16.277069 260.6877,14.451 261.72266,12.5 Z m -7.19532,0.208984 c -0.85548,2.592397 -1.6815,5.194692 -2.51757,7.792969 -0.19122,0.644783 -0.3885,1.287527 -0.58204,1.931641 0.0133,-0.02496 0.0278,-0.04922 0.041,-0.07422 0.35374,-0.670969 0.67229,-1.358843 1.00391,-2.041016 0.25207,-0.518541 0.49077,-1.042823 0.74023,-1.5625 0.0857,-0.323313 0.1663,-0.647947 0.25391,-0.970703 0.27168,-1.000962 0.65163,-1.974914 0.84375,-2.99414 0.12822,-0.680239 0.18468,-1.37946 0.21679,-2.082032 z m -3.05078,14.81836 c -0.4438,0.796976 -0.85269,1.551721 -1.36328,2.613281 -0.26076,0.542152 -0.41232,1.117897 -0.66797,1.662109 -0.11384,0.258781 -0.24372,0.510246 -0.34179,0.775391 -0.90693,2.452061 0.62623,-1.26494 -0.60743,1.841797 -0.54035,1.360783 -1.14611,2.698876 -1.72265,4.044922 -0.27455,0.640969 -0.65322,1.017574 -1.03516,1.189453 -0.79943,2.388722 -1.54167,4.808128 -1.92578,7.298828 -0.0624,0.404372 -0.51553,1.251638 -0.10742,1.222656 0.0279,-0.002 0.0543,-0.009 0.082,-0.01172 -0.0239,0.02045 -0.0432,0.04414 -0.0645,0.06641 0.0498,-0.02904 0.10394,-0.05179 0.15429,-0.08008 1.1684,-0.152976 2.17779,-0.969899 3.27149,-1.433594 0.21124,-0.600242 0.33813,-1.23031 0.5039,-1.84375 0.32398,-1.198828 0.69371,-2.383282 1.04493,-3.574219 0.7998,-2.69887 1.50471,-5.426003 2.23437,-8.144531 0.0663,-0.237193 0.13434,-0.473893 0.20117,-0.710938 0.0455,-1.642904 0.1224,-3.283895 0.34375,-4.916015 z"
       transform="scale(0.26458333)"
       style="fill:#000000;fill-opacity:0;stroke-width:0.999999"
       id="path636" />
    <g
       inkscape:corner7="-0.39236843 : -0.0011186467 : 0.25 : 1"
       inkscape:corner0="-0.37233077 : 0.004079493 : 0 : 1"
       inkscape:perspectiveID="#perspective640"
       style="fill:#000000;fill-opacity:0"
       id="g642"
       sodipodi:type="inkscape:box3d">
      <path
         points="71.727333,3.3265045 71.727333,9.3875449 70.08976,9.306115 70.08976,3.3834514 "
         d="m 70.08976,3.3834514 1.637573,-0.056947 V 9.3875449 L 70.08976,9.306115 Z"
         inkscape:box3dsidetype="11"
         style="fill:#e9e9ff;fill-rule:evenodd;stroke:none;stroke-linejoin:round"
         id="path654"
         sodipodi:type="inkscape:box3dside" />
      <path
         d="M 246.94531,9.1191406 V 31.214844 c 0.0787,-0.174642 0.15494,-0.350289 0.23242,-0.525391 0.15175,-0.279811 0.21261,-0.559673 0.33008,-0.859375 0.10976,-0.280044 0.22301,-0.559075 0.35352,-0.830078 0.84461,-1.754135 1.33737,-2.565464 2.34375,-4.376953 0.42138,-0.75426 0.86074,-1.499398 1.26367,-2.263672 0.35374,-0.670969 0.67229,-1.358843 1.00391,-2.041016 0.25183,-0.518041 0.49107,-1.041341 0.74023,-1.560547 0.0858,-0.323923 0.16614,-0.649292 0.25391,-0.972656 0.27168,-1.000962 0.65163,-1.974914 0.84375,-2.99414 0.25254,-1.339722 0.2536,-2.73978 0.24609,-4.117188 z m 12.16992,2.4843754 c -0.0334,0.13459 -0.0696,0.271051 -0.12695,0.416015 -1.02313,2.587105 -2.19394,5.107933 -3.39453,7.615235 -0.15032,0.568543 -0.30345,1.136371 -0.44531,1.707031 -0.87388,3.515272 -0.6147,2.362085 -1.10742,6.039062 -0.49359,3.181521 -0.33761,6.404332 -0.54102,9.603516 -0.0268,0.421379 -0.0884,0.840152 -0.15039,1.257813 -0.0421,0.284279 -0.0466,0.25476 -0.0645,0.326171 L 264.9062,35.171875 V 12.787109 Z m -7.63867,15.923828 c -0.4438,0.796976 -0.85269,1.551721 -1.36328,2.613281 -0.26076,0.542152 -0.41232,1.117897 -0.66797,1.662109 -0.11384,0.258781 -0.24372,0.510246 -0.34179,0.775391 -0.90693,2.452061 0.62623,-1.26494 -0.60743,1.841797 -0.48726,1.227085 -1.02653,2.435784 -1.55078,3.648437 v 2.351563 l 3.77149,-1.101563 c -0.009,-0.152795 -0.0169,-0.305089 -0.0137,-0.458984 0.0654,-0.660215 0.23183,-1.295324 0.27344,-1.960937 0.19517,-3.12199 0.0785,-6.263024 0.5,-9.371094 z"
         transform="scale(0.26458333)"
         style="fill:#353564;fill-rule:evenodd;stroke:none;stroke-width:3.77953;stroke-linejoin:round"
         id="path644" />
      <path
         d="m 264.90625,35.171875 -11.62109,3.396484 c -0.0445,0.177541 -0.0537,0.08937 -0.0645,0.488282 0.0358,0.181772 5.6e-4,0.389675 0.0625,0.566406 0.18121,0.517005 0.17686,0.942896 0.0664,1.275391 l 1.73828,0.128906 16.00781,-5.546875 z m -14.18945,4.146484 -3.77149,1.101563 4.05078,0.302734 c -0.0827,-0.184248 -0.15219,-0.387489 -0.19336,-0.628906 -0.0439,-0.256945 -0.0707,-0.515941 -0.0859,-0.775391 z"
         transform="scale(0.26458333)"
         style="fill:#afafde;fill-rule:evenodd;stroke:none;stroke-width:3.77953;stroke-linejoin:round"
         id="path652" />
      <path
         d="m 254.68945,8.7148438 -7.74414,0.4042968 7.61133,1.5546874 c -0.002,-0.359324 0.002,-0.724768 0.002,-1.0781249 0,-0.3418483 0.0494,-0.6324993 0.13086,-0.8808593 z m 2.36524,0.4550781 c 0.0174,0.1330703 0.0293,0.2743708 0.0293,0.4257812 0,0.2274936 -0.003,0.4587789 -0.002,0.6874999 0.3014,-0.3931693 0.65173,-0.5993853 0.98438,-0.6210936 0.73404,-0.047904 1.35061,0.7269716 1.04882,1.9414066 l 5.79102,1.183593 6.18945,-0.214843 z"
         transform="scale(0.26458333)"
         style="fill:#4d4d9f;fill-rule:evenodd;stroke:none;stroke-width:3.77953;stroke-linejoin:round"
         id="path646" />
      <path
         d="m 257.05469,9.1699219 c 0.0174,0.1330703 0.0293,0.2743708 0.0293,0.4257812 0,0.2274936 -0.003,0.4587789 -0.002,0.6874999 0.3014,-0.3931693 0.65173,-0.5993853 0.98438,-0.6210936 0.8154,-0.053213 1.4965,0.9044206 0.92187,2.3574216 -1.02143,2.582803 -2.19092,5.098906 -3.39062,7.601563 -0.15156,0.573117 -0.30622,1.145445 -0.44922,1.720703 -0.0279,0.112338 -0.0349,0.141028 -0.0606,0.244141 v 19.441406 l 16.0079,-5.546875 V 12.572266 Z"
         transform="scale(0.26458333)"
         style="fill:#d7d7ff;fill-rule:evenodd;stroke:none;stroke-width:3.77953;stroke-linejoin:round"
         id="path650" />
      <path
         d="m 254.68945,8.7148438 -7.74414,0.4042968 V 31.214844 c 0.0787,-0.174642 0.15494,-0.350289 0.23242,-0.525391 0.15175,-0.279811 0.21261,-0.559673 0.33008,-0.859375 0.10976,-0.280044 0.22301,-0.559075 0.35352,-0.830078 0.84461,-1.754135 1.33737,-2.565464 2.34375,-4.376953 0.42138,-0.75426 0.86074,-1.499398 1.26367,-2.263672 0.35374,-0.670969 0.67229,-1.358843 1.00391,-2.041016 0.24715,-0.508422 0.48847,-1.019497 0.73242,-1.529297 0.0885,-0.334322 0.17114,-0.670181 0.26172,-1.003906 0.27168,-1.000962 0.65163,-1.974914 0.84375,-2.99414 0.31842,-1.689215 0.24804,-3.487422 0.24804,-5.1953129 0,-0.3418483 0.0494,-0.6324993 0.13086,-0.8808593 z m 0.39844,12.8710942 c -0.77771,3.123479 -0.5699,2.23545 -1.04687,5.794921 -0.49359,3.181521 -0.33761,6.404332 -0.54102,9.603516 -0.0268,0.421379 -0.0884,0.840152 -0.15039,1.257813 -0.14691,0.991047 -0.11379,0.255083 -0.12891,0.814453 0.0358,0.181772 5.6e-4,0.389675 0.0625,0.566406 0.18121,0.517005 0.17686,0.942896 0.0664,1.275391 l 1.73828,0.128906 z m -3.61133,5.941406 c -0.4438,0.796976 -0.85269,1.551721 -1.36328,2.613281 -0.26076,0.542152 -0.41232,1.117897 -0.66797,1.662109 -0.11384,0.258781 -0.24372,0.510246 -0.34179,0.775391 -0.90693,2.452061 0.62623,-1.26494 -0.60743,1.841797 -0.48726,1.227085 -1.02653,2.435784 -1.55078,3.648437 v 2.351563 l 4.05078,0.302734 c -0.0827,-0.184248 -0.15219,-0.387489 -0.19336,-0.628906 -0.0697,-0.408265 -0.10829,-0.819164 -0.0996,-1.234375 0.0654,-0.660215 0.23183,-1.295324 0.27344,-1.960937 0.19517,-3.12199 0.0785,-6.263024 0.5,-9.371094 z"
         transform="scale(0.26458333)"
         style="fill:#8686bf;fill-rule:evenodd;stroke:none;stroke-width:3.77953;stroke-linejoin:round"
         id="path648" />
    </g>
    <g
       inkscape:corner7="-0.40007773 : 2.4119953e-05 : 0.25 : 1"
       inkscape:corner0="-0.3864009 : 0.0032084804 : 0 : 1"
       inkscape:perspectiveID="#perspective640"
       style="fill:#000000;fill-opacity:0"
       id="g656"
       sodipodi:type="inkscape:box3d">
      <path
         points="72.377943,4.3286939 72.377943,8.0753428 71.231692,8.0396381 71.231692,4.3523249 "
         d="m 71.231692,4.3523249 1.146251,-0.023631 v 3.7466489 l -1.146251,-0.035705 z"
         inkscape:box3dsidetype="11"
         style="fill:#e9e9ff;fill-rule:evenodd;stroke:none;stroke-linejoin:round"
         id="path668"
         sodipodi:type="inkscape:box3dside" />
      <path
         d="m 252.60742,14.1875 v 5.845703 c 0.20295,-0.418181 0.40072,-0.838722 0.60156,-1.257812 0.0873,-0.329733 0.16848,-0.661083 0.25782,-0.990235 0.27168,-1.000962 0.65163,-1.974914 0.84375,-2.99414 0.0226,-0.119992 0.03,-0.244215 0.0488,-0.365235 z m 5.17969,0.705078 c -0.70074,1.606831 -1.44475,3.193677 -2.20117,4.775391 -0.14734,0.557573 -0.29838,1.114198 -0.4375,1.673828 -0.87388,3.515272 -0.6147,2.362085 -1.10742,6.039062 -0.31952,2.059463 -0.36525,4.136434 -0.41407,6.212891 l 15.59571,-3.207031 v -13.9375 z"
         transform="scale(0.26458333)"
         style="fill:#353564;fill-rule:evenodd;stroke:none;stroke-width:3.77953;stroke-linejoin:round"
         id="path658" />
      <path
         d="m 269.22266,30.386719 -15.59571,3.207031 c -0.002,0.08528 -0.006,0.170578 -0.008,0.255859 l 4.74805,0.222657 15.1875,-3.550782 z"
         transform="scale(0.26458333)"
         style="fill:#afafde;fill-rule:evenodd;stroke:none;stroke-width:3.77953;stroke-linejoin:round"
         id="path666" />
      <path
         d="m 258.36719,14.009766 -0.20313,0.0059 c -0.12439,0.29284 -0.24979,0.58536 -0.37695,0.876953 l 11.43555,1.556641 4.33203,-0.08789 z m -3.9668,0.121093 -1.79297,0.05664 1.75196,0.238281 c 0.0152,-0.09779 0.028,-0.196543 0.041,-0.294922 z"
         transform="scale(0.26458333)"
         style="fill:#4d4d9f;fill-rule:evenodd;stroke:none;stroke-width:3.77953;stroke-linejoin:round"
         id="path660" />
      <path
         d="m 258.36719,14.009766 v 20.0625 l 15.1875,-3.550782 V 16.361328 Z"
         transform="scale(0.26458333)"
         style="fill:#d7d7ff;fill-rule:evenodd;stroke:none;stroke-width:3.77953;stroke-linejoin:round"
         id="path664" />
      <path
         d="m 258.36719,14.009766 -0.20313,0.0059 c -0.80831,1.902873 -1.68419,3.775418 -2.57617,5.640625 -0.14837,0.56138 -0.29938,1.12209 -0.43945,1.685547 -0.87388,3.515272 -0.6147,2.362085 -1.10742,6.039062 -0.33264,2.144048 -0.37045,4.307067 -0.42188,6.46875 l 4.74805,0.222657 z m -3.9668,0.121093 -1.79297,0.05664 v 5.845703 c 0.20324,-0.418794 0.40034,-0.840087 0.60156,-1.259765 0.0872,-0.329123 0.16864,-0.659737 0.25782,-0.988282 0.27168,-1.000962 0.65163,-1.974914 0.84375,-2.99414 0.0409,-0.216953 0.0608,-0.440031 0.0898,-0.660157 z"
         transform="scale(0.26458333)"
         style="fill:#8686bf;fill-rule:evenodd;stroke:none;stroke-width:3.77953;stroke-linejoin:round"
         id="path662" />
    </g>
    <path
       d="M 246.42578,8.6933594 V 32.75 c 0.0745,-0.255431 -0.11816,0.102168 0.36719,-1.191406 0.11128,-0.296612 0.25656,-0.57944 0.38476,-0.869141 0.15175,-0.279811 0.21261,-0.559673 0.33008,-0.859375 0.10976,-0.280044 0.22301,-0.559075 0.35352,-0.830078 0.84461,-1.754135 1.33737,-2.565464 2.34375,-4.376953 0.42138,-0.75426 0.86074,-1.499398 1.26367,-2.263672 0.35374,-0.670969 0.67229,-1.358843 1.00391,-2.041016 0.24715,-0.508422 0.48847,-1.019497 0.73242,-1.529297 0.0885,-0.334322 0.17114,-0.670181 0.26172,-1.003906 0.27168,-1.000962 0.65163,-1.974914 0.84375,-2.99414 0.31842,-1.689215 0.24804,-3.487422 0.24804,-5.1953129 0,-0.3521798 0.0527,-0.6493884 0.13868,-0.9023437 z m 8.66211,12.8925786 c -0.77771,3.123479 -0.5699,2.23545 -1.04687,5.794921 -0.49359,3.181521 -0.33761,6.404332 -0.54102,9.603516 -0.0268,0.421379 -0.0884,0.840152 -0.15039,1.257813 -0.14691,0.991047 -0.11379,0.255083 -0.12891,0.814453 0.0358,0.181772 5.6e-4,0.389675 0.0625,0.566406 0.0466,0.133058 0.0774,0.259372 0.10157,0.380859 h 1.70312 z m -3.61133,5.941406 c -0.4438,0.796976 -0.85269,1.551721 -1.36328,2.613281 -0.26076,0.542152 -0.41232,1.117897 -0.66797,1.662109 -0.11384,0.258781 -0.24372,0.510246 -0.34179,0.775391 -0.90693,2.452061 0.62623,-1.26494 -0.60743,1.841797 -0.54035,1.360783 -1.14611,2.698876 -1.72265,4.044922 -0.10262,0.239579 -0.22122,0.435201 -0.34766,0.605468 v 0.933594 h 4.36524 c -0.0603,-0.378819 -0.096,-0.759638 -0.0879,-1.144531 0.0654,-0.660215 0.23183,-1.295324 0.27344,-1.960937 0.19517,-3.12199 0.0785,-6.263024 0.5,-9.371094 z"
       transform="scale(0.26458333)"
       style="fill:#000000;fill-opacity:0;stroke-width:0.999999"
       id="rect684" />
    <path
       d="M 246.33203,3.0761719 V 33.009766 c 0.23258,-0.635485 -0.10735,0.06345 0.46094,-1.451172 0.11128,-0.296612 0.25656,-0.57944 0.38476,-0.869141 0.15175,-0.279811 0.21261,-0.559673 0.33008,-0.859375 0.10976,-0.280044 0.22301,-0.559075 0.35352,-0.830078 0.84461,-1.754135 1.33737,-2.565464 2.34375,-4.376953 0.42138,-0.75426 0.86074,-1.499398 1.26367,-2.263672 0.35374,-0.670969 0.67229,-1.358843 1.00391,-2.041016 0.046,-0.09459 0.0888,-0.190537 0.13476,-0.285156 V 3.0761719 Z m 5.14453,24.4511721 c -0.4438,0.796976 -0.85269,1.551721 -1.36328,2.613281 -0.26076,0.542152 -0.41232,1.117897 -0.66797,1.662109 -0.11384,0.258781 -0.24372,0.510246 -0.34179,0.775391 -0.90693,2.452061 0.62623,-1.26494 -0.60743,1.841797 -0.54035,1.360783 -1.14611,2.698876 -1.72265,4.044922 -0.0759,0.177288 -0.16223,0.327783 -0.25196,0.466797 h 4.1836 c 1.9e-4,-0.0242 -0.002,-0.04804 -0.002,-0.07227 0.0654,-0.660215 0.23183,-1.295324 0.27344,-1.960937 0.19517,-3.12199 0.0785,-6.263024 0.5,-9.371094 z"
       transform="scale(0.26458333)"
       style="fill:#000000;fill-opacity:0;stroke-width:0.999999"
       id="rect686" />
    <rect
       y="2.2360394"
       x="66.211449"
       height="8.1917477"
       width="0.18190104"
       id="rect876"
       style="fill:#000000;fill-opacity:0;fill-rule:evenodd;stroke-width:0.264583" />
    <rect
       y="2.0463867"
       x="65.20015"
       height="8.5379801"
       width="2.5905433"
       id="rect880"
       style="fill:#000000;fill-opacity:0;fill-rule:evenodd;stroke-width:0.264583" />
    <g
       inkscape:corner7="-0.37100732 : 0.00010732454 : 0.25 : 1"
       inkscape:corner0="-0.37076797 : 0.0043143772 : 0 : 1"
       inkscape:perspectiveID="#perspective640"
       style="fill:#000000;fill-opacity:0;fill-rule:evenodd"
       id="g907"
       sodipodi:type="inkscape:box3d">
      <path
         points="69.98423,3.1199015 69.98423,7.9061217 69.965178,7.9055541 69.965178,3.1206368 "
         d="m 69.965178,3.1206368 0.01905,-7.353e-4 v 4.7862202 l -0.01905,-5.676e-4 z"
         inkscape:box3dsidetype="11"
         style="fill:#e9e9ff;fill-rule:evenodd;stroke:none;stroke-linejoin:round"
         id="path919"
         sodipodi:type="inkscape:box3dside" />
      <path
         points="65.175349,8.7338338 69.965178,7.9055541 69.965178,3.1206368 65.175349,2.0478224 "
         d="M 65.175349,2.0478224 V 8.7338338 L 69.965178,7.9055541 V 3.1206368 Z"
         inkscape:box3dsidetype="6"
         style="fill-rule:evenodd"
         id="path909"
         sodipodi:type="inkscape:box3dside" />
      <path
         points="65.20015,8.7349423 69.98423,7.9061217 69.965178,7.9055541 65.175349,8.7338338 "
         d="m 65.175349,8.7338338 0.0248,0.00111 4.78408,-0.8288206 -0.01905,-5.676e-4 z"
         inkscape:box3dsidetype="13"
         style="fill-rule:evenodd"
         id="path917"
         sodipodi:type="inkscape:box3dside" />
      <path
         points="65.20015,2.0463867 69.98423,3.1199015 69.965178,3.1206368 65.175349,2.0478224 "
         d="m 65.175349,2.0478224 0.0248,-0.00144 4.78408,1.0735148 -0.01905,7.353e-4 z"
         inkscape:box3dsidetype="5"
         style="fill-rule:evenodd"
         id="path911"
         sodipodi:type="inkscape:box3dside" />
      <path
         points="65.20015,8.7349423 69.98423,7.9061217 69.98423,3.1199015 65.20015,2.0463867 "
         d="M 65.20015,2.0463867 V 8.7349423 L 69.98423,7.9061217 V 3.1199015 Z"
         inkscape:box3dsidetype="14"
         style="fill-rule:evenodd"
         id="path915"
         sodipodi:type="inkscape:box3dside" />
      <path
         points="65.20015,2.0463867 65.20015,8.7349423 65.175349,8.7338338 65.175349,2.0478224 "
         d="m 65.175349,2.0478224 0.0248,-0.00144 v 6.6885556 l -0.0248,-0.00111 z"
         inkscape:box3dsidetype="3"
         style="fill-rule:evenodd"
         id="path913"
         sodipodi:type="inkscape:box3dside" />
    </g>
    <rect
       y="0.53453904"
       x="57.863853"
       height="6.3476515"
       width="23.786983"
       id="rect965"
       style="fill:#ffff00;fill-rule:evenodd;stroke-width:0.264583" />
    <text
       transform="scale(1.0448226,0.95710027)"
       id="text969"
       y="6.1408215"
       x="55.099411"
       style="font-size:6.62145px;line-height:1.25;font-family:sans-serif;stroke-width:0.165538"
       xml:space="preserve"><tspan
         style="stroke-width:0.165538"
         y="6.1408215"
         x="55.099411"
         id="tspan967"
         sodipodi:role="line">Source</tspan></text>
    <rect
       y="10.557146"
       x="40.357697"
       height="0.93544334"
       width="0.13363476"
       id="rect1065"
       style="fill:#ffffff;fill-rule:evenodd;stroke-width:0.264583" />
  </g>
</svg>
